<svg width="580" height="580" viewBox="0 0 580 580" fill="none" xmlns="http://www.w3.org/2000/svg">
<mask id="path-1-inside-1_1_2" fill="white">
<path d="M290 337C417.025 337 520 377.966 520 428.5C520 429.976 519.911 431.443 519.737 432.901C519.911 434.577 520 436.278 520 438V471C520 498.062 498.062 520 471 520H109C81.938 520 60 498.062 60 471V438C60 436.278 60.0885 434.577 60.2617 432.901C60.0881 431.443 60 429.976 60 428.5C60 377.966 162.975 337 290 337ZM290 60C350.751 60 400 111.711 400 175.5C400 239.289 350.751 291 290 291C229.249 291 180 239.289 180 175.5C180 111.711 229.249 60 290 60Z"/>
</mask>
<path d="M519.737 432.901L495.906 430.064L495.59 432.715L495.865 435.37L519.737 432.901ZM60.2617 432.901L84.1345 435.369L84.409 432.715L84.0934 430.064L60.2617 432.901ZM290 337V361C351.255 361 405.608 370.921 443.763 386.1C462.909 393.717 476.787 402.187 485.482 410.366C494.133 418.502 496 424.642 496 428.5H520H544C544 407.091 532.996 389.16 518.369 375.402C503.787 361.687 483.982 350.441 461.506 341.5C416.417 323.562 355.771 313 290 313V337ZM520 428.5H496C496 429.008 495.969 429.527 495.906 430.064L519.737 432.901L543.569 435.739C543.852 433.358 544 430.944 544 428.5H520ZM519.737 432.901L495.865 435.37C495.954 436.233 496 437.11 496 438H520H544C544 435.447 543.867 432.922 543.61 430.433L519.737 432.901ZM520 438H496V471H520H544V438H520ZM520 471H496C496 484.807 484.807 496 471 496V520V544C511.317 544 544 511.317 544 471H520ZM471 520V496H109V520V544H471V520ZM109 520V496C95.1929 496 84 484.807 84 471H60H36C36 511.317 68.6832 544 109 544V520ZM60 471H84V438H60H36V471H60ZM60 438H84C84 437.101 84.0462 436.224 84.1345 435.369L60.2617 432.901L36.389 430.433C36.1307 432.931 36 435.456 36 438H60ZM60.2617 432.901L84.0934 430.064C84.0308 429.538 84 429.018 84 428.5H60H36C36 430.933 36.1454 433.348 36.43 435.738L60.2617 432.901ZM60 428.5H84C84 424.642 85.8674 418.502 94.5176 410.366C103.213 402.187 117.091 393.717 136.237 386.1C174.392 370.921 228.745 361 290 361V337V313C224.229 313 163.583 323.562 118.494 341.5C96.0179 350.441 76.2131 361.687 61.6314 375.402C47.0045 389.16 36 407.091 36 428.5H60ZM290 60V84C336.406 84 376 123.849 376 175.5H400H424C424 99.5732 365.096 36 290 36V60ZM400 175.5H376C376 227.151 336.406 267 290 267V291V315C365.096 315 424 251.427 424 175.5H400ZM290 291V267C243.594 267 204 227.151 204 175.5H180H156C156 251.427 214.904 315 290 315V291ZM180 175.5H204C204 123.849 243.594 84 290 84V60V36C214.904 36 156 99.5732 156 175.5H180Z" fill="black" mask="url(#path-1-inside-1_1_2)"/>
</svg>
