<svg width="580" height="580" viewBox="0 0 580 580" fill="none" xmlns="http://www.w3.org/2000/svg">
<path d="M483.529 26C486.947 20.3216 494.416 18.3211 500.214 21.5322L504.94 24.1504C510.738 27.3616 512.667 34.5686 509.25 40.2471L269.174 439.185C268.577 440.176 267.855 441.053 267.041 441.812C266.826 442.092 266.569 442.352 266.267 442.581L241.552 461.345C238.541 463.631 234.282 461.077 235.104 457.479L241.848 427.942C242.013 427.22 242.365 426.598 242.837 426.101C243.019 425.707 243.224 425.319 243.453 424.938L483.529 26Z" fill="black"/>
<path d="M483.529 26C486.947 20.3216 494.416 18.3211 500.214 21.5322L504.94 24.1504C510.738 27.3616 512.667 34.5686 509.25 40.2471L269.174 439.185C268.577 440.176 267.855 441.053 267.041 441.812C266.826 442.092 266.569 442.352 266.267 442.581L241.552 461.345C238.541 463.631 234.282 461.077 235.104 457.479L241.848 427.942C242.013 427.22 242.365 426.598 242.837 426.101C243.019 425.707 243.224 425.319 243.453 424.938L483.529 26Z" stroke="black"/>
<circle cx="399" cy="60" r="12" fill="black"/>
<circle cx="461" cy="203" r="12" fill="black"/>
<mask id="mask0_1_1376" style="mask-type:alpha" maskUnits="userSpaceOnUse" x="72" y="48" width="401" height="511">
<path d="M72 203H473V559H72V203Z" fill="#D9D9D9"/>
<path d="M72 48L400 48V352.783H72V48Z" fill="#D9D9D9"/>
</mask>
<g mask="url(#mask0_1_1376)">
<rect x="82" y="60" width="379" height="487" rx="17" stroke="black" stroke-width="24"/>
</g>
</svg>
