<svg width="580" height="580" viewBox="0 0 580 580" fill="none" xmlns="http://www.w3.org/2000/svg">
<mask id="path-1-inside-1_1_1376" fill="white">
<path d="M430.36 121.821C477.255 112.706 529.879 180.469 547.899 273.175C565.919 365.88 542.512 448.423 495.617 457.538C450.62 466.285 400.35 404.25 380.434 317.316H370.656C345.288 322.261 317.347 325 288 325C258.653 325 230.712 322.261 205.344 317.316H200.543C180.627 404.25 130.357 466.284 85.3601 457.538C38.4652 448.423 15.0578 365.88 33.0779 273.175C51.098 180.469 103.722 112.706 150.617 121.821C162.666 124.163 173.163 131.353 181.806 142.316H202.17C228.373 136.973 257.423 134 288 134C318.576 134 347.626 136.973 373.83 142.316H399.171C407.814 131.353 418.311 124.163 430.36 121.821Z"/>
</mask>
<path d="M430.36 121.821L425.781 98.2623L425.781 98.2623L430.36 121.821ZM547.899 273.175L571.458 268.595L571.458 268.595L547.899 273.175ZM495.617 457.538L500.196 481.097L500.196 481.097L495.617 457.538ZM380.434 317.316L403.828 311.957L399.558 293.316H380.434V317.316ZM370.656 317.316V293.316H368.339L366.065 293.76L370.656 317.316ZM288 325L288 349H288V325ZM205.344 317.316L209.936 293.76L207.662 293.316H205.344V317.316ZM200.543 317.316V293.316H181.419L177.149 311.957L200.543 317.316ZM85.3601 457.538L80.7807 481.097L80.7808 481.097L85.3601 457.538ZM33.0779 273.175L9.51883 268.595L9.51883 268.595L33.0779 273.175ZM150.617 121.821L155.196 98.2623L155.196 98.2623L150.617 121.821ZM181.806 142.316L162.959 157.175L170.166 166.316H181.806V142.316ZM202.17 142.316V166.316H204.592L206.965 165.833L202.17 142.316ZM288 134L288 110L288 110L288 134ZM373.83 142.316L369.035 165.833L371.408 166.316H373.83V142.316ZM399.171 142.316V166.316H410.811L418.018 157.176L399.171 142.316ZM430.36 121.821L434.939 145.38C444.8 143.464 461.556 148.995 481.002 174.036C499.516 197.875 515.894 234.304 524.34 277.754L547.899 273.175L571.458 268.595C561.884 219.34 542.941 175.535 518.913 144.595C495.819 114.856 462.815 91.0636 425.781 98.2623L430.36 121.821ZM547.899 273.175L524.34 277.754C532.786 321.204 531.246 361.116 523.012 390.155C514.362 420.657 500.898 432.062 491.037 433.979L495.617 457.538L500.196 481.097C537.231 473.898 558.918 439.475 569.191 403.25C579.878 365.563 581.032 317.851 571.458 268.595L547.899 273.175ZM495.617 457.538L491.038 433.979C481.598 435.814 465.845 430.908 447.196 408.111C429.353 386.299 413.154 352.667 403.828 311.957L380.434 317.316L357.04 322.676C367.63 368.899 386.524 409.752 410.044 438.503C432.759 466.271 464.639 488.009 500.196 481.097L495.617 457.538ZM380.434 317.316V293.316H370.656V317.316V341.316H380.434V317.316ZM370.656 317.316L366.065 293.76C342.281 298.395 315.88 301 288 301V325V349C318.814 349 348.296 346.126 375.247 340.873L370.656 317.316ZM288 325L288 301C260.12 301 233.72 298.395 209.936 293.76L205.344 317.316L200.753 340.873C227.704 346.126 257.186 349 288 349L288 325ZM205.344 317.316V293.316H200.543V317.316V341.316H205.344V317.316ZM200.543 317.316L177.149 311.957C167.823 352.667 151.624 386.299 133.781 408.111C115.132 430.908 99.3786 435.814 89.9394 433.979L85.3601 457.538L80.7808 481.097C116.338 488.009 148.218 466.271 170.933 438.503C194.453 409.752 213.348 368.899 223.937 322.676L200.543 317.316ZM85.3601 457.538L89.9395 433.979C80.079 432.062 66.6153 420.657 57.9654 390.155C49.7306 361.116 48.1911 321.204 56.6369 277.754L33.0779 273.175L9.51883 268.595C-0.0554108 317.851 1.09879 365.563 11.7864 403.251C22.0589 439.475 43.7463 473.898 80.7807 481.097L85.3601 457.538ZM33.0779 273.175L56.6369 277.754C65.0828 234.304 81.4615 197.875 99.9748 174.036C119.421 148.995 136.177 143.464 146.038 145.38L150.617 121.821L155.196 98.2623C118.162 91.0635 85.1585 114.856 62.064 144.595C38.0365 175.535 19.0931 219.34 9.51883 268.595L33.0779 273.175ZM150.617 121.821L146.037 145.38C151.214 146.387 157.017 149.638 162.959 157.175L181.806 142.316L200.653 127.457C189.309 113.069 174.117 101.94 155.196 98.2623L150.617 121.821ZM181.806 142.316V166.316H202.17V142.316V118.316H181.806V142.316ZM202.17 142.316L206.965 165.833C231.509 160.828 258.949 158 288 158L288 134L288 110C255.898 110 225.238 113.119 197.375 118.8L202.17 142.316ZM288 134V158C317.051 158 344.491 160.828 369.035 165.833L373.83 142.316L378.625 118.8C350.762 113.119 320.102 110 288 110V134ZM373.83 142.316V166.316H399.171V142.316V118.316H373.83V142.316ZM399.171 142.316L418.018 157.176C423.96 149.638 429.763 146.387 434.94 145.38L430.36 121.821L425.781 98.2623C406.86 101.94 391.668 113.069 380.324 127.457L399.171 142.316Z" fill="black" mask="url(#path-1-inside-1_1_1376)"/>
<circle cx="441" cy="254" r="12" fill="black"/>
<circle cx="465" cy="230" r="12" fill="black"/>
<circle cx="417" cy="230" r="12" fill="black"/>
<circle cx="441" cy="206" r="12" fill="black"/>
<circle cx="140" cy="254" r="12" fill="black"/>
<circle cx="164" cy="230" r="12" fill="black"/>
<circle cx="116" cy="230" r="12" fill="black"/>
<circle cx="140" cy="206" r="12" fill="black"/>
<path d="M362 255.5C366.418 255.5 370.088 259.222 368.273 263.25C367.258 265.503 365.799 267.713 363.91 269.851C359.89 274.4 353.997 278.534 346.569 282.017C339.14 285.499 330.321 288.261 320.615 290.145C310.909 292.03 300.506 293 290 293C279.494 293 269.091 292.03 259.385 290.145C249.679 288.261 240.86 285.499 233.431 282.017C226.003 278.534 220.11 274.4 216.09 269.851C214.201 267.713 212.742 265.503 211.727 263.25C209.912 259.222 213.582 255.5 218 255.5L244.845 255.5C248.989 255.5 252.471 259.149 255.214 262.254V262.254C257.107 264.395 259.88 266.341 263.376 267.98C266.873 269.619 271.023 270.919 275.591 271.806C280.159 272.693 285.056 273.149 290 273.149C294.944 273.149 299.841 272.693 304.409 271.806C308.977 270.919 313.127 269.619 316.624 267.98C320.12 266.341 322.893 264.395 324.786 262.254V262.254C327.529 259.149 331.011 255.5 335.155 255.5H362Z" fill="black"/>
</svg>
